<svg version="1.0" xmlns="http://www.w3.org/2000/svg" width="480" height="480" viewBox="0 0 360 360"><g fill="#D90416"><path d="M148 73.5V147H0v65h148v148h64V212h148v-65H212V0h-64v73.5z"/><path d="M261.4 22.9c-9.7 6.5-18.3 15.9-26.4 28.7-4.1 6.5-9.2 14-11.2 16.6l-3.8 4.7v32.2l3.1-1.8c6.9-3.9 24.4-22.7 32.8-35 9.7-14.2 18-23.1 27.7-29.3 3.8-2.4 7.1-4.6 7.4-4.7 1.1-.9-20.3-15.3-22.8-15.3-.5 0-3.6 1.8-6.8 3.9zM80.9 25c-4.1 2.7-9 6.2-10.9 7.8l-3.4 2.9 5.9 7.3c8 9.8 17.8 18.4 28.1 24.8 11.7 7.2 19.2 13 30.1 23.7l9.3 9.1V63l-5.8-5.8c-3.3-3.1-11.9-10-19.2-15.2-7.3-5.2-16.3-12.3-19.9-15.7l-6.7-6.1-7.5 4.8zM292 45.1C280.3 54 273.1 62 263.2 77c-11 16.8-23.1 29.5-35.4 37.5l-7.8 5v19.4l11 .3 11 .3 6.9-5.2c9.3-7 21.8-19.6 26.2-26.3 2-3 6.6-10.2 10.4-15.9 9.1-14 17-22.8 24.9-28.2 3.6-2.4 6.6-4.8 6.6-5.3 0-1-17-18.6-17.9-18.6-.3.1-3.5 2.3-7.1 5.1zM49.7 50.9c-4.8 4.9-8.7 9.2-8.7 9.6 0 .4 1.4 3.1 3 6 4.9 8.5 15.3 18.9 25.9 25.9 5.3 3.4 12.9 8.4 16.8 11 9.3 6.1 20 16.1 28.7 27l7 8.6H140v-21.3l-5.7-7.1c-10.4-12.9-19.5-20.9-36.2-32.1-16.7-11-27-20.3-34.7-31-2.2-3-4.2-5.4-4.5-5.5-.3 0-4.4 4-9.2 8.9zm268.6 20.7c-8.1 5.5-17.7 16.5-29.3 33.4-6.5 9.6-13.9 18.9-19.6 24.7l-9 9.3h37.4l5.2-5.8c2.8-3.1 8.3-10.4 12.3-16.2 3.9-5.8 10.9-14.4 15.5-19.2 5.5-5.7 8.1-9.1 7.6-10C333.9 80 325.5 68 324.6 68c-.6.1-3.5 1.7-6.3 3.6zm-285.6-.9C30.3 73.5 20 90.2 20 91.5c0 2 8.8 13.8 15.2 20.3 6.6 6.9 10.7 9.9 20.9 15.5 3.6 2 9 5.5 12 7.7l5.3 4h33.8l-1.7-2.8c-7.2-11.3-16-20.4-25.6-26.3-4.1-2.5-11.6-7.2-16.8-10.4-11.7-7.3-18.5-13.9-24-23.3-2.3-3.9-4.3-7.2-4.5-7.2-.2 0-1 .8-1.9 1.7zM56.6 225c-2.5 2.7-8.4 10.7-13 17.8-6 9.2-10.5 14.8-16 19.8l-7.6 7 7.6 11.2 7.5 11.2 6.2-4.3c9.3-6.3 16.8-14.6 26.1-28.6 9.1-13.7 16.8-22.8 26.1-31.1 3.3-2.9 6.7-5.9 7.5-6.6 1.2-1.2-1.7-1.4-19.1-1.4H61.3l-4.7 5zm51.3 2.8c-12.3 10.2-20.6 19.9-32.2 37.4-9.1 13.8-20.1 26.5-29 33.3l-3.8 3 8.9 8.9c6.8 6.7 9.4 8.7 10.8 8.2 3.3-1.1 17.6-13.9 24.7-22.1 3.8-4.3 9.8-12.4 13.4-18 8.8-13.4 15.7-21.1 28.5-31.8l10.8-9V220h-22.7l-9.4 7.8zm112.1 1.8v9.6l5.5 7.1c9.3 12.1 21.3 23.4 32 30.4 14.3 9.4 25.6 18.7 36.2 29.6l9.3 9.6 8.2-8.5c4.6-4.7 8.5-8.9 8.6-9.4.6-1.8-5-10.3-10.7-16.4-6.4-6.7-15.2-13.6-32.8-25.5-13.1-8.9-25.3-20.6-31.9-30.5l-3.7-5.6H220v9.6zm35.5-6.9c6.4 10 13.9 16.5 36 31.4 14.7 9.9 24.3 18.6 31.5 28.3l4.3 5.9 1.9-2.3c1.1-1.3 4.4-6.6 7.5-11.7l5.5-9.2-4.5-5.8c-7.7-9.9-16.7-18.1-27.7-25.1-5.8-3.7-12.9-8.4-15.9-10.4l-5.4-3.8h-34.9l1.7 2.7zM133 257.3c-9.6 7.9-20 19.5-24.5 27.3-9.3 16-21 28.7-34.4 37.4l-5.3 3.5 2.6 2.1c1.4 1.2 6.6 4.8 11.7 7.9l9.1 5.7 5.3-3.7c11.2-7.7 20.3-18.1 35.8-41l6.7-10-.2-17.3-.3-17.3-6.5 5.4zm87 17.8v19.2l5.6 6.4c4 4.5 9.8 9.1 20.2 16 8.3 5.5 17.2 12.3 20.5 15.7l5.8 6 3.2-1.9c7.6-4.4 18.6-12.9 18-13.9-.3-.6-3-4.1-6-7.8-6.8-8.4-15.7-15.7-29.8-24.4-11.2-7-23.5-17.8-32.6-28.7l-4.9-5.8v19.2z"/></g></svg>